<svg width="100" height="100" viewBox="0 0 100 100" fill="none" xmlns="http://www.w3.org/2000/svg">
<circle cx="50" cy="50" r="50" fill="#002069"/>
<g clip-path="url(#clip0_4_1461)">
<path d="M56.5438 60.3957C55.0107 59.8981 53.0662 58.4275 53.4551 56.593L54.7265 56.0954L58.7649 38.6414L60.1335 37.208L60.2457 38.0324L61.0235 37.5867L61.6143 38.8568L62.6314 38.4632C63.1175 38.7602 63.11 39.3247 62.8408 39.8669C63.3344 40.0674 63.6634 40.6096 63.5214 41.1667L61.734 48.2522C61.0459 50.9929 60.4028 53.6444 60.0139 56.489C61.4124 56.8232 62.9754 56.3776 64.4487 56.7118C64.5908 56.7638 64.688 57.1277 64.7329 57.306C65.4808 57.8705 66.3184 58.4275 67.1634 58.9103C67.2457 58.9548 67.4626 58.9103 67.5224 58.8509C67.5823 58.7914 67.5598 58.5612 67.485 58.5166L66.9017 58.1304C66.9017 56.4742 67.7243 55.5903 68.2478 54.1791C68.547 53.377 68.2105 52.6417 67.4327 52.1961L68.0758 51.5573L67.4102 51.2751L69.6912 51.134L74.2981 38.1512L75.0983 37.4605L75.2478 38.0101L76.1303 37.6239C76.3472 38.0695 76.4519 38.7677 76.9605 38.8568C77.3568 38.9311 77.5214 38.2403 77.5363 37.9507C77.5588 37.4828 77.7233 37.1263 78.2169 36.9851L78.2917 37.8393C78.4562 37.661 78.6058 37.5125 78.8301 37.3417C78.9498 37.2525 79.2414 37.5348 79.2788 37.6684L79.4434 38.3072C79.9295 38.2255 80.281 38.1735 80.7596 38.1809C82.188 40.1566 82.3301 40.4759 82.5919 42.9418C83.0032 46.8039 82.6966 48.7499 83.5566 52.8348L84.4092 56.8901C84.7083 58.3012 84.8953 59.6604 84.9776 61.1087C82.188 60.4032 80.0865 58.5241 79.8248 55.568L73.3558 55.6497C73.0267 56.2291 72.8098 56.8307 72.6004 57.462L71.516 60.6111C71.4337 60.8562 71.187 61.0122 70.9402 60.975C70.2746 60.8785 70.5139 61.443 69.9829 61.6064C69.8857 61.3464 69.8333 61.1236 69.781 60.8859L69.1004 60.9899L68.9508 60.4997C68.5171 60.5368 68.1581 60.3586 67.8515 60.0541L66.9092 59.1405C66.7073 59.6753 66.8045 60.1135 66.8568 60.6482C63.5214 60.3586 59.6773 61.3835 56.5363 60.3734L56.5438 60.3957ZM75.1357 51.6019L79.0545 51.5425L78.1346 44.2712C77.4017 45.4076 76.953 46.5291 76.4669 47.71L75.1357 51.6019Z" fill="white"/>
<path d="M23.6902 52.3372C22.6581 51.587 22.0898 52.5526 21.656 51.1266C20.9605 51.2083 20.6614 54.0529 20.6015 54.699L20.2126 58.4721C20.1079 59.4599 19.8686 60.3363 19.5022 61.3018L18.9936 60.7374C19.0086 60.9305 18.9637 61.1979 18.8216 61.3315C18.4402 61.7029 17.7522 61.792 17.3558 61.5247C17.281 61.3835 17.2436 60.975 17.109 60.9008L16.0695 60.314C15.3216 59.8981 15.9199 59.3633 15.0075 58.6355L18.0364 39.3619C18.1186 38.8568 17.9242 38.426 17.9391 37.8987H20.0406L20.3547 39.0648C20.5342 38.8345 20.6763 38.6191 20.8483 38.5969C21.1549 38.5523 21.3344 38.79 21.469 39.0276C21.9776 39.9189 22.6881 39.9857 22.6806 40.929C22.6507 43.1497 22.3665 45.2962 21.8056 47.4427C21.9851 47.4947 22.1795 47.5244 22.359 47.5095L29.8825 37.817L30.0321 38.3295C30.0545 38.4186 30.3237 38.478 30.4135 38.4409C30.6902 38.3146 30.6005 37.8987 30.922 37.869C31.3408 37.8318 31.1688 38.5003 31.3408 38.4706L31.7896 38.3889L31.453 39.1539L32.6571 38.8939C33.203 39.5698 33.5919 40.2977 33.6592 41.1889C33.6966 41.6866 33.4872 42.5036 32.9413 42.6075C32.5898 42.6744 32.2682 42.4664 31.9541 42.8526L29.8675 45.3928L28.9925 46.5143C28.7009 46.8856 28.6336 47.3684 28.5962 47.814L28.0951 47.5244L26.6667 49.2178C27.1378 49.8417 27.4819 50.4507 27.6913 51.1711C28.3195 53.325 28.14 53.7929 29.0898 56.1622L30.2564 59.0662C30.6378 60.0095 30.8173 60.9676 30.8996 62.0297C27.4819 61.4281 26.0983 58.7914 25.0064 55.8948L23.6752 52.3595L23.6902 52.3372Z" fill="white"/>
<path d="M53.0139 58.2864C53.4028 58.4498 53.6795 58.7989 53.5822 59.2371L53.3579 60.3066C53.5822 60.3512 53.8664 60.2546 53.8963 60.6631L49.4166 60.975C47.9508 61.079 46.5299 61.0196 45.079 60.975C43.4188 60.9231 42.0427 60.1878 40.9658 58.992C40.3825 58.3384 40.0235 57.6031 40.1731 56.6895L40.891 56.5633C41.3622 56.4816 41.6987 56.1474 41.8109 55.6794C42.0203 54.8105 42.1923 53.9638 42.3419 53.0651L42.9925 49.2029L44.3087 43.5805C44.7051 41.8945 45.1538 40.3051 45.7072 38.6637C45.8119 38.3443 46.6122 36.9703 47.0833 37.4159L46.8814 38.2329L47.6442 37.8318L48.1228 39.0573L49.3493 38.79L50.359 41.1667L48.6538 48.0294C47.9359 50.9335 47.3077 53.7632 46.7991 56.7267C48.5491 56.9421 49.282 56.7267 51.0844 56.9569C51.7649 57.0461 51.4583 57.6328 52.0641 57.8853L53.0064 58.2715L53.0139 58.2864Z" fill="white"/>
<path d="M37.0246 54.6471C36.0224 57.3506 36.7478 58.3235 36.2393 60.9231L35.7308 60.6928L35.3942 61.1533C33.3002 60.3957 31.6624 59.0737 31.625 56.6598C31.61 55.6423 31.7596 54.6619 32.0662 53.6889L33.3525 49.656C34.5566 45.8978 35.3045 42.0802 36.0822 38.2181L37.3312 37.8913L37.1741 38.4186L37.7724 37.9581L38.3258 38.9608C38.5427 39.3544 39.3504 38.7751 39.8066 39.4733C40.1731 40.0303 40.6293 40.721 40.6218 41.4266C40.5919 43.0829 38.9017 49.5891 38.3184 51.1563L37.032 54.6396L37.0246 54.6471Z" fill="white"/>
</g>
<defs>
<clipPath id="clip0_4_1461">
<rect width="70" height="25" fill="white" transform="translate(15 37)"/>
</clipPath>
</defs>
</svg>
