<svg width="100" height="100" viewBox="0 0 100 100" fill="none" xmlns="http://www.w3.org/2000/svg">
<circle cx="50" cy="50" r="50" fill="#002069"/>
<g clip-path="url(#clip0_3478_13306)">
<path d="M73.84 40L77.6008 42.1772C78.7315 41.5026 79.8868 40.877 81.0236 40.2085C81.122 40.1533 81.251 40.092 81.3186 40H81.4415L88.9816 44.379L89.0062 53.0451L88.9386 53.18L81.3801 57.51L77.6008 55.3327L73.7786 57.51L66.2078 53.1187V44.3484L73.7232 40H73.8461H73.84Z" fill="white"/>
<path d="M11 40.2021H13.0525L13.2 40.2573L17.5876 46.8565V40.2021H19.9043V51.6833H17.8887L13.3167 44.7836V51.6833H11V40.2021Z" fill="white"/>
<path d="M37.6637 60.0002H37.2581C37.0369 59.9389 36.8095 59.9327 36.5822 59.8837C35.9676 59.7426 35.4207 59.4053 34.9414 59.0067L35.7771 57.9334C36.238 58.4853 37.9034 59.1722 38.2966 58.2952C38.5424 57.7432 38.0508 57.4856 37.6391 57.2894C36.6989 56.8417 35.3654 56.5902 35.2302 55.3084C35.009 53.2293 37.0983 52.573 38.7637 53.2477C38.8989 53.3029 39.6731 53.7261 39.6547 53.8487L38.8681 54.8791C38.3827 54.5356 37.8665 54.2106 37.2397 54.278C36.5207 54.3578 36.4347 55.0876 37.0307 55.4617C37.9771 56.0628 39.4335 56.1486 39.7223 57.4795C40.0234 58.884 39.0156 59.8837 37.6698 59.9941L37.6637 60.0002Z" fill="white"/>
<path d="M40.0602 51.6836H37.3379L35.267 47.9117H33.7615V51.6836H31.3649V40.2638L31.5062 40.2024C34.5112 40.3373 39.5072 39.2518 39.7837 43.6308C39.8881 45.3297 39.2183 46.6974 37.6698 47.4456L40.0664 51.6836H40.0602ZM33.7615 45.8019H35.9368C36.5145 45.8019 37.1843 45.1702 37.3195 44.6244C37.6206 43.3916 36.9139 42.349 35.6111 42.349H33.7615V45.7958V45.8019Z" fill="white"/>
<path d="M40.4658 51.6836V40.2024C42.9792 40.3189 45.7752 39.6872 47.84 41.4597C50.2857 43.5633 50.2857 48.2858 47.8645 50.4017C45.7936 52.211 42.9915 51.5609 40.4658 51.6774V51.6836ZM42.8686 49.5308H44.4724C47.7048 49.5308 48.2148 43.6431 45.3143 42.5637C44.5277 42.2693 43.6859 42.3674 42.8624 42.349V49.5308H42.8686Z" fill="white"/>
<path d="M24.9741 40.0553C29.3555 39.6689 31.3957 43.5818 30.6521 47.4702C30.1175 50.273 27.8438 52.1865 24.9249 51.8431C18.7122 51.1132 18.9887 40.5827 24.9741 40.0553ZM25.2199 42.2448C21.7356 42.6373 22.0674 50.5428 26.2154 49.6045C29.2756 48.9114 29.122 41.8032 25.2199 42.2448Z" fill="white"/>
<path d="M60.9905 43.4102C60.9291 43.4286 60.9229 43.3918 60.8861 43.3734C60.7324 43.2691 60.5481 43.0422 60.376 42.9073C59.9766 42.6067 59.442 42.3308 58.9319 42.2817C54.6365 41.8462 55.0543 50.8496 59.4358 49.5065C60.0565 49.3163 60.5296 48.8502 61.009 48.4393L62.3916 50.1443C59.952 52.8429 55.4906 52.3277 54.0158 48.887C52.879 46.2253 53.4075 42.2449 56.1052 40.7116C58.0655 39.6015 60.8185 39.8898 62.3609 41.5703L60.9782 43.4102H60.9905Z" fill="white"/>
<path d="M52.541 51.6833H50.1444V40.2021H52.4796L52.541 40.2635V51.6833Z" fill="white"/>
<path d="M53.7209 59.9203H52.1539L50.8143 57.651H49.9785V59.859L49.9171 59.9203H48.5529V53.0635C50.1813 53.1678 53.0449 52.5054 53.4935 54.7256C53.7209 55.8295 53.346 56.8844 52.2952 57.3812L53.7148 59.9203H53.7209ZM49.9785 56.4306H51.017C51.1031 56.4306 51.4288 56.3631 51.5271 56.3263C52.2891 56.0626 52.3505 54.836 51.6254 54.4864C51.5701 54.4618 51.2997 54.3576 51.2629 54.3576H49.9847V56.4244L49.9785 56.4306Z" fill="white"/>
<path d="M42.0513 59.9201H40.6871L40.6256 59.8588V53.1247C40.6625 53.0695 40.7055 53.0695 40.7669 53.0633C41.406 52.9897 43.1021 53.0204 43.7166 53.1676C45.8735 53.6705 46.0272 56.7923 44.0546 57.6018C43.9071 57.6632 43.4278 57.8165 43.2926 57.8165H42.1127L42.0513 57.8778V59.9263V59.9201ZM42.0513 56.5531H43.0898C43.1451 56.5531 43.4647 56.4243 43.5323 56.3813C44.1529 55.9888 44.1836 54.8603 43.5138 54.5046C43.4401 54.4617 43.1574 54.3574 43.0898 54.3574H42.0513V56.5469V56.5531Z" fill="white"/>
<path d="M61.4022 53.0635V54.4005H59.6939V59.8589L59.6325 59.9203H58.3297L58.2682 59.8589V54.4005H56.566V53.0635H61.4022Z" fill="white"/>
<path d="M47.416 53.0635V59.9203H46.0579L45.9965 59.8589V53.1248L46.0579 53.0635H47.416Z" fill="white"/>
<path d="M55.9147 53.0635V59.9203H54.5505L54.489 59.8589V53.1248L54.5505 53.0635H55.9147Z" fill="white"/>
</g>
<defs>
<clipPath id="clip0_3478_13306">
<rect width="78" height="20" fill="white" transform="translate(11 40)"/>
</clipPath>
</defs>
</svg>
