<svg width="100" height="100" viewBox="0 0 100 100" fill="none" xmlns="http://www.w3.org/2000/svg">
<circle cx="50" cy="50" r="50" fill="#002069"/>
<g clip-path="url(#clip0_4_1448)">
<path d="M18.6171 47.8041C18.9345 47.4193 19.0482 46.1684 18.9225 45.6452L19.4375 45.6933C19.5573 44.8454 19.9525 44.4785 19.2998 43.8591L19.1141 44.6048L19.0782 44.7612C19.0662 44.8093 18.9165 44.7912 18.8207 44.7732C19.0303 43.7088 18.6949 42.6564 17.8146 41.9347L17.8565 40.3591C17.8685 40.0043 18.0182 39.5954 18.108 39.2406C18.8267 39.0361 21.6892 38.543 21.8868 37.9356C21.9227 37.8153 21.8269 37.5747 21.7371 37.4665L21.5215 37.2139C21.4736 37.1598 21.3239 37.256 21.2041 37.2981L21.1562 36.3239C21.1502 36.1856 21.4556 36.0172 21.5874 36.0533C21.761 36.1014 21.9167 36.366 21.9467 36.5584C22.0724 36.5163 22.3479 36.4502 22.4857 36.4802L23.6953 36.7509C23.9109 37.0636 23.8271 37.695 23.7792 38.0017C23.7732 38.0438 23.9229 38.1461 23.9469 38.11L24.0846 37.8574C24.1804 37.683 24.3241 37.4906 24.4798 37.4424C24.6595 37.3883 25.0248 37.5086 25.0487 37.683L25.1266 38.3205C25.7015 38.4046 26.3602 38.2182 26.9052 38.4107L29.6 39.3608C29.8995 39.4691 30.3486 39.3247 30.678 39.3488C32.0972 39.445 33.1812 40.7199 33.4507 42.0309C33.3488 42.3617 33.2051 42.6203 33.2111 42.9991L34.9598 39.9442L35.9479 40.0945C35.7982 40.299 35.7323 40.3832 35.6904 40.5516C36.8701 40.2028 38.0379 39.8961 39.2176 40.1486C39.4691 40.9966 40.3973 41.1108 41.2058 41.3093L41.6729 50.7569C41.6729 50.8591 42.0322 50.9854 42.0861 50.8651L44.8828 44.268C44.9965 43.9974 44.9367 43.4021 44.9486 43.366L46.2901 39.4931C46.5116 38.8557 46.2541 38.11 46.3799 37.4845C47.4279 37.3583 47.9788 36.9373 49.1765 37.1117L49.8532 37.8935L52.2606 38.0619C52.6379 38.7895 53.0451 38.2423 54.0272 38.555L54.2488 38.0799L55.3208 38.6452C55.3806 38.6753 55.3447 38.9098 55.2788 38.8978L54.6081 38.8016C56.8538 39.6916 58.3689 41.5258 59.1175 43.829C59.2373 44.2019 59.5546 44.3763 59.3989 44.9175L58.7642 47.1246C58.5965 47.1426 58.3569 47.0765 58.2252 46.9622L58.7522 46.0842C58.7821 46.0361 58.6145 45.8617 58.6504 45.8136L58.842 45.567C58.9019 45.4949 58.8121 45.2723 58.7282 45.2242C58.6264 45.1701 58.3689 45.128 58.2611 45.1521C57.7222 46.427 56.1352 47.1366 54.8956 47.5936C54.7998 47.6297 54.674 47.7861 54.674 47.8883C55.5962 48.3033 56.74 47.8522 57.7701 47.5034C57.818 47.6959 57.7102 47.9785 57.5185 48.1048L55.9675 49.1151C57.1233 49.6203 57.8419 51.3101 58.4528 52.3986C58.7582 51.9656 58.0575 51.3222 57.9737 50.7869L61.0398 39.3909C61.0877 39.2225 61.3213 39.2526 61.3392 39.3007C61.2913 39.5713 61.2614 39.9622 61.1775 40.2328L60.5967 42.079L61.0877 42.2474L59.9798 45.5249L60.1834 45.8737C59.872 46.3488 59.4409 47.7861 59.6026 48.165C59.6265 48.2191 59.7882 48.1409 59.8361 47.9545L63.2496 34.5498C64.2437 34.2552 63.5849 33.4132 64.597 33.5936C64.8305 33.6357 65.118 33.7981 65.106 34.0988L65.0641 35.2835C65.6689 35.6083 66.2019 34.9287 66.4474 35.067C66.5313 35.1151 66.6211 35.3557 66.5912 35.476L62.7405 49.7646C63.543 49.6504 64.2437 49.5361 64.9803 49.5241L68.2919 49.4519C67.6092 48.5077 67.3397 47.4433 67.0762 46.3127C66.9385 45.7053 66.5672 45.1521 66.3576 44.5507L66.6331 44.25L66.681 42.8668C66.7109 42.0249 66.8786 41.2612 67.3337 40.5395C67.8907 39.6435 68.5195 38.8256 69.2561 38.0438C70.2322 37.0034 71.1964 35.9089 72.3402 35.1091C70.7592 36.8471 69.1962 38.5369 68.1482 40.5034C68.1063 40.5816 68.1003 40.6899 68.0943 40.732C68.0943 40.7861 68.3338 40.7741 68.3698 40.7019C69.4118 38.6151 71.6575 36.3359 73.5618 34.9167L76.8076 32.4931L75.1428 33.0404C74.538 33.2388 74.9512 32.3368 76.1728 32.1864C77.5442 32.018 78.9096 31.9098 80.2869 32.1143C82.3051 32.421 84.0657 33.4974 85.5329 34.8926L85.2634 35.1813C85.1975 35.2534 85.2574 35.5241 85.2993 35.6203L85.9521 37.1117C85.4491 37.3703 84.9939 36.3058 84.976 36.8531L84.7484 42.4699C84.7484 42.5722 84.9161 42.7105 84.94 42.6684C85.1616 42.2775 85.1317 41.5919 85.7125 41.4055C85.6946 42.4339 85.3712 43.3239 84.8562 44.2079C83.9519 45.7775 82.9339 47.2569 81.8679 48.7302C81.838 48.7723 81.8799 48.8866 81.9518 48.9888C80.4965 50.4321 77.8257 51.9416 75.8315 52.6031C74.7416 52.9639 73.0288 52.3325 71.7233 52.4588L73.6217 53.0842C73.7115 53.1143 73.9092 53.018 74.0289 52.9699L73.8732 53.6916L64.9623 54.311L58.9199 55.3995C57.2012 57.5945 52.3505 58.4545 49.7275 59.0378C48.1106 59.3986 45.5595 60.1143 44.0324 59.5009C43.8946 59.2363 43.7569 58.9356 43.5234 58.7672C43.0143 59.7955 42.3257 59.116 42.1999 59.3626L42.0622 59.6332C41.9843 59.7895 41.7388 59.9158 41.5651 59.9158C40.8944 59.9158 41.3914 58.4364 41.4214 58.0275C41.4394 57.9674 41.2058 58.1057 41.1938 58.1959L40.9722 60.6134C40.9004 61.3772 40.7746 62.1048 40.6369 62.8144C40.4632 62.6581 40.3614 62.5739 40.1578 62.5739L40.2357 66.567L39.8584 66.549C39.6009 66.5369 39.9602 65.6589 39.2955 65.6589L39.3733 66.7053C39.2775 66.6933 39.1098 66.6031 39.02 66.5249L38.8044 66.3385C38.6247 66.1821 38.6128 67.2526 38.0019 66.976L37.4929 62.4235C37.4869 62.3634 37.3073 62.2552 37.2893 62.2852C37.2713 62.3153 37.2174 62.3995 37.2114 62.4416L37.0557 63.2775C37.0557 63.2775 36.906 63.3376 36.8881 63.3196L36.7803 63.1813L36.8222 60.0842L37.5348 60.6976C37.5947 59.7474 37.7564 58.5627 37.2893 57.9132C37.5768 57.6967 37.6546 56.951 37.5528 56.933L37.1995 56.8608C36.9899 56.8187 37.1336 57.7148 36.7803 57.6667C36.7324 57.2217 36.7982 56.5361 37.1635 56.3076L36.6485 56.3857L36.8282 55.4235C37.0498 55.4957 37.1935 55.628 37.3552 55.8024C37.4151 55.7844 37.4809 55.7603 37.463 55.7302C37.445 55.7002 37.3492 55.5198 37.3552 55.4837L37.6007 53.9622L31.684 54.2449C31.6242 54.3832 31.5882 54.6057 31.5942 54.75L33.4866 54.5876C33.7621 54.5636 34.1573 54.9845 34.4208 54.9845L35.7862 54.9966C35.8101 55.1229 35.7443 55.3995 35.6544 55.5077C34.2232 55.5498 32.8338 55.5558 31.4505 55.9287C29.4144 56.476 30.115 57.0052 28.7017 59.2784C28.3903 59.7835 28.025 60.1924 27.5759 60.5833L27.4442 61.0705C27.2226 61.0524 26.7914 61.0103 26.6417 60.866L26.3542 60.6014C26.2944 60.5473 26.1566 60.7156 26.0848 60.7998L25.462 60.1804L26.2285 58.7552C25.2823 58.256 25.0128 59.9098 24.8332 60.5713L24.414 60L24.941 58.4966L24.3241 57.5223L30.6001 47.6598C30.648 47.5876 30.8696 47.5576 30.8756 47.6117L30.8936 47.8522C30.9115 48.1289 30.9295 48.4115 31.3008 48.4897L31.7379 47.3411C31.5583 47.3832 31.3846 47.4072 31.2469 47.3832C31.3008 46.5833 31.5882 45.976 31.8038 45.2002C30.8576 46.5593 29.9354 47.8162 28.6778 48.8686C27.528 49.8308 26.2884 50.6546 24.8212 51.0095L20.2519 52.116L19.3357 56.5601L19.2998 57.8591C18.653 58.0576 17.8386 59.5911 17.4673 60.2345C17.3774 60.3849 17.0301 60.5653 16.8864 60.4571L15.006 59.0378L15.7066 56.9871L15.1437 55.8024L16.4193 52.2904L16.2276 51.9235L17.9703 47.329C18.0242 47.1847 17.9284 46.9141 17.8925 46.7998C18.0362 46.5713 18.4733 46.5593 18.665 46.7397C18.6769 47.1306 18.3536 47.3772 18.6171 47.8222V47.8041ZM79.9755 43.6366C80.6343 42.8127 81.802 40.8402 81.9937 39.7998L82.365 37.8153C82.4308 37.4665 82.335 37.1839 81.9937 36.9674C81.3709 36.5644 80.4067 36.1735 79.7061 36.0833C79.5863 36.0713 79.3288 36.3299 79.2689 36.2638L79.0413 36.0052L78.149 36.2638C78.0652 36.2878 77.9095 36.1134 77.8197 36.0172C77.7837 36.1435 77.8436 36.3479 77.9754 36.5584L75.9632 37.7732C75.2206 37.7612 74.5799 38.0619 74.0469 38.6031C73.3522 39.3127 72.7474 40.0945 72.2384 40.9725C71.5736 42.1211 70.873 43.2337 70.4358 44.5026C69.9747 45.8316 71.3041 48.0266 72.1485 48.4656C72.7713 48.7844 73.6157 48.5739 74.2325 48.3454C76.2686 47.5816 78.6461 45.3144 79.9815 43.6426L79.9755 43.6366ZM70.9089 40.329L71.8491 39.0481C71.7772 39 71.6036 38.994 71.5676 39.0421L70.6634 40.2749C70.6394 40.311 70.7292 40.4674 70.7592 40.4433C70.7831 40.4253 70.8909 40.3591 70.9089 40.3351V40.329ZM56.776 43.5644C56.5185 44.2199 56.2071 44.7612 55.6561 44.5868C55.704 44.2741 55.698 44.1237 55.5543 43.9253L55.9675 43.3419L56.219 43.6366C56.261 43.6847 56.4286 43.7148 56.4526 43.6546C56.6203 43.1435 55.1112 42.3196 54.6201 42.1332C53.65 41.7663 52.7337 41.4957 51.7097 41.4897C50.518 41.4837 49.5059 42.2474 49.3322 43.4442L49.0867 45.1581L51.5061 45.3325L51.4162 45.8256L55.5723 44.8754C54.9375 45.6031 54.0692 45.555 53.4643 46.0662C55.0633 45.9459 56.7879 45.2723 57.2551 43.7208C57.1053 43.6546 56.8538 43.5705 56.77 43.5584L56.776 43.5644ZM56.7101 42.6804C56.7999 42.3617 56.6023 42.1211 56.3208 42.0369L54.9135 41.616C54.8596 41.5979 54.7399 41.7784 54.7758 41.8084C54.7998 41.8265 54.8896 41.8926 54.9315 41.9107L56.7101 42.6804ZM67.699 41.9588C67.3697 42.6503 67.3817 43.4141 67.214 44.1177C67.3936 45.0739 68.0105 41.616 67.699 41.9588ZM81.6104 42.2715L80.0594 44.7552C80.3229 44.8273 80.6043 44.8754 80.8618 44.8754C81.2571 44.0756 82.4847 43.0954 81.6104 42.2715ZM22.1982 46.7337C22.6713 46.8419 22.8809 46.8058 23.2222 46.7096C25.5578 46.0662 27.6418 44.8333 29.4443 43.1555C28.1029 42.9089 24.0666 42.4639 23.1983 43.4201L22.1982 46.7337ZM33.6004 44.3342C33.6662 44.1177 33.7141 43.9313 33.6902 43.7689C33.6483 43.5043 33.0195 43.2638 32.9716 43.4442L32.8817 43.7569C32.8578 43.829 33.0674 43.8832 33.1333 43.9373L33.6064 44.3342H33.6004ZM83.0357 44.8995L83.4249 43.9734C83.4489 43.9193 83.4369 43.7809 83.389 43.7629C82.9638 43.5765 82.4907 45.3505 82.88 45.0258L83.0297 44.8995H83.0357ZM25.6476 47.1125C27.1447 46.4029 28.576 45.5189 29.6839 44.2741C28.8215 44.7792 28.1688 45.2723 27.3244 45.6392C25.6117 46.3729 23.893 46.9442 22.1144 47.4974C21.8928 47.5696 21.6892 47.75 21.6712 47.9605C22.4318 48.3454 24.905 47.4613 25.6476 47.1065V47.1125ZM79.9815 45.0979C79.9456 44.6168 78.4964 46.1143 78.5143 46.1323C79.227 46.006 79.4006 45.3866 79.9815 45.0979ZM37.1695 50.0352C37.1695 48.7062 36.9659 47.323 36.8821 46.0662C36.8821 46.0301 36.8222 45.9399 36.8102 45.9038C36.7982 45.8677 36.6126 45.9038 36.5587 46.006L33.5824 50.9854C34.319 51.2079 35.0795 51.3162 35.8521 51.1718C36.3671 51.0756 37.1755 50.7208 37.1815 50.0352H37.1695ZM32.7201 49.4098C32.7201 49.4639 32.8338 49.6203 32.8817 49.5962C32.9296 49.5722 33.0315 49.506 33.0554 49.4579L34.1932 47.3411C34.2232 47.2809 34.1932 47.0885 34.1393 47.0705C34.1034 47.0584 33.9597 47.1065 33.9357 47.1546L33.1512 48.7423C32.9716 48.5799 32.8398 48.4777 32.6721 48.4656L32.7201 49.4098ZM18.144 49.1512L18.4075 47.9906C18.1979 47.9244 17.9943 47.9064 17.8266 47.9545L17.9883 48.4717C17.7607 48.5919 17.581 48.9167 17.6769 49.1452C17.7248 49.2595 18.12 49.2895 18.15 49.1512H18.144ZM30.8277 49.1452L30.8876 48.9768C30.9055 48.9227 30.5702 48.8505 30.3666 49.1692C30.3067 49.2655 30.3187 49.5842 30.4025 49.6924C30.6061 49.5962 30.7438 49.3557 30.8277 49.1452ZM65.639 50.5885L69.1183 50.4622L68.5854 49.8488C67.5074 49.921 63.2436 49.8007 62.5848 50.5825L65.5492 50.3299L65.633 50.5885H65.639ZM71.4658 50.5404C71.4479 50.0292 71.0646 49.8488 70.6514 49.8488L71.4658 50.5404ZM55.734 52.6632C55.8537 51.8454 55.0094 51.4545 54.3985 51.1839C53.5781 51.0095 52.8056 50.6005 51.9732 50.4923L47.1644 49.8849L45.6673 54.0885C45.6074 54.2509 45.5714 54.5275 45.6673 54.6418C46.0565 55.1108 47.895 54.8763 48.5238 54.7741C50.482 54.4433 52.3385 53.884 54.2368 53.3127C54.7698 53.1504 55.2549 53.012 55.728 52.6572L55.734 52.6632ZM55.0034 50.5464L53.2906 50.0232L53.1589 50.1194C53.1589 50.1194 53.2248 50.2818 53.2607 50.2938L55.6681 51.2801C55.728 51.3041 55.8777 51.256 55.9136 51.2199C56.0753 51.0215 54.9794 50.5344 55.0034 50.5404V50.5464ZM29.594 51.0034L30.151 50.1976C30.0252 50.1435 29.7677 50.0954 29.6539 50.1314L29.2527 51.0275C29.2527 51.1177 29.5461 51.0816 29.594 51.0095V51.0034ZM32.2829 50.5705L32.3068 50.3058C32.3068 50.2577 32.1691 50.2156 32.1272 50.2457C32.0853 50.2758 32.0074 50.36 31.9835 50.4081L31.6421 51.232C32.1272 51.3462 32.247 50.9734 32.2829 50.5705ZM36.948 51.6048L34.1753 51.6589C34.1034 51.6589 33.9956 51.695 33.9477 51.7131C33.1333 52.0138 36.9959 52.3325 36.9539 51.6048H36.948ZM56.7341 53C56.74 52.8256 56.4466 52.5249 56.3388 52.6151C56.0573 52.8557 55.8777 53.0601 55.704 53.3608C56.1352 53.2345 56.4286 53.1263 56.7341 52.994V53ZM58.1593 55.0808L57.7581 54.329C56.1831 55.5498 54.0572 56.2354 52.2726 57.0352C53.9434 56.7225 56.8778 56.061 58.1593 55.0808ZM40.2177 60.7156C40.2117 60.6555 40.0261 60.5533 40.0021 60.6014C39.8045 61.0043 39.8943 61.4734 39.9243 62.0687C39.9243 62.177 40.4512 62.8205 40.2177 60.7156ZM37.96 61.1847C38.0199 61.1065 38.0319 60.7878 37.96 60.7998L37.6905 60.8299C37.5708 60.8419 37.2653 60.86 37.2234 60.9622C37.1815 61.0524 37.1576 61.2208 37.1276 61.3832C37.4091 61.3892 37.8043 61.3832 37.966 61.1847H37.96Z" fill="white"/>
<path d="M85.7725 39.8299L85.2515 39.7277L85.479 38.4407L86 38.5369L85.7725 39.8299Z" fill="white"/>
<path d="M36.9121 59.543C36.9061 59.5911 36.8342 59.7053 36.8043 59.7414C36.7743 59.7775 36.6006 59.6693 36.6006 59.6091L36.6126 58.1237L37.1396 58.1839L36.9121 59.543Z" fill="white"/>
<path d="M55.4226 44.0756C55.6861 44.232 54.6501 44.7792 54.5243 44.5327L55.4226 44.0756Z" fill="white"/>
</g>
<defs>
<clipPath id="clip0_4_1448">
<rect width="71" height="35" fill="white" transform="translate(15 32)"/>
</clipPath>
</defs>
</svg>
