<svg width="100" height="100" viewBox="0 0 100 100" fill="none" xmlns="http://www.w3.org/2000/svg">
<circle cx="50" cy="50" r="50" fill="#002069"/>
<g clip-path="url(#clip0_3478_13312)">
<path d="M38.5682 57.5532C37.7367 57.456 37.0424 57.1344 36.5313 56.4613C36.3558 56.2369 36.1727 56.0126 36.0278 55.7733C34.1129 52.6397 32.2057 49.5062 30.3061 46.3652C30.268 46.2978 30.2832 46.1632 30.329 46.0959C31.6412 44.144 32.9533 42.1846 34.2808 40.2402C34.8453 39.41 35.4251 38.5799 36.0354 37.7797C36.455 37.2263 37.0577 36.9496 37.7672 36.9196C37.9045 36.9196 38.0418 36.8972 38.1715 36.8673C38.3622 36.8224 38.4004 36.7028 38.2554 36.5681C38.1868 36.5083 38.0876 36.4485 37.996 36.441C37.6527 36.4186 37.3094 36.4111 36.9661 36.4186C36.2414 36.4186 35.5166 36.441 34.7919 36.4485C34.0672 36.4485 33.3424 36.441 32.6177 36.441C32.5032 36.441 32.343 36.441 32.3812 36.613C32.4041 36.7177 32.5185 36.8449 32.6177 36.8673C32.8542 36.9271 33.0983 36.9271 33.3424 36.9645C33.8001 37.0393 33.9909 37.2637 33.8917 37.7049C33.8154 38.0265 33.7086 38.3555 33.5331 38.6397C32.4727 40.3822 31.397 42.1173 30.3137 43.8449C30.0544 44.2562 29.7645 44.6525 29.4593 45.1087C29.4059 45.034 29.3906 45.0115 29.383 44.9891C28.4599 43.4036 27.5292 41.8256 26.6214 40.2327C26.217 39.5222 25.8356 38.7968 25.4923 38.0564C25.3855 37.8246 25.3931 37.5254 25.4084 37.2562C25.4084 37.159 25.5686 37.0243 25.683 36.9944C25.9271 36.9271 26.1865 36.9346 26.4383 36.8897C26.5374 36.8748 26.69 36.8149 26.7053 36.7551C26.7358 36.5906 26.6366 36.4634 26.4535 36.4485C26.2018 36.4261 25.95 36.3961 25.6983 36.4111C24.1038 36.5008 22.5094 36.4859 20.915 36.4111C20.5564 36.3961 20.1902 36.4186 19.8316 36.441C19.763 36.441 19.6409 36.5083 19.6333 36.5607C19.618 36.628 19.6714 36.7551 19.7325 36.785C19.8774 36.8523 20.0376 36.9047 20.1902 36.9196C21.0446 36.9869 21.7694 37.3011 22.3263 37.9442C22.5475 38.1985 22.7688 38.4602 22.9442 38.7519C24.5692 41.4218 26.1865 44.0991 27.8115 46.769C27.903 46.9186 27.903 47.0382 27.8038 47.2028C26.2628 49.5884 24.737 51.9891 23.1807 54.3673C22.6543 55.175 22.0745 55.9677 21.4642 56.7156C21.0294 57.254 20.3962 57.5233 19.6791 57.5607C19.5265 57.5681 19.3663 57.5756 19.2213 57.6055C19.145 57.6205 19.023 57.6953 19.0306 57.7327C19.0382 57.8224 19.0916 57.9346 19.1679 57.9795C19.2519 58.0318 19.3739 58.0468 19.4807 58.0468C19.8088 58.0468 20.1368 58.0468 20.4572 58.0468C21.5939 58.0468 22.723 58.0468 23.8597 58.0468C24.1877 58.0468 24.5158 58.0468 24.8362 58.0318C24.9277 58.0318 25.0117 57.9496 25.1032 57.9122C25.0346 57.8224 24.9888 57.6953 24.9049 57.6504C24.7752 57.5831 24.615 57.5681 24.4624 57.5457C23.997 57.4859 23.8292 57.3363 23.9207 56.8801C24.0123 56.4463 24.1496 56.0051 24.3708 55.6162C25.1414 54.2551 25.9653 52.9164 26.7587 51.5703C27.3995 50.4859 28.0403 49.4015 28.6888 48.3021C28.7422 48.3694 28.8109 48.4442 28.8643 48.5265C29.116 48.9303 29.3678 49.3267 29.6043 49.738C30.9012 51.9741 32.2057 54.2177 33.495 56.4613C33.8307 57.0521 33.8078 57.097 33.3195 57.5756C33.2966 57.5981 33.2738 57.628 33.2509 57.6579C33.4187 57.9944 33.7391 57.9944 34.0443 58.0019C35.5319 58.0243 37.0195 58.0393 38.5072 58.0543C38.6903 58.0543 38.8734 58.0468 39.0488 58.0169C39.1251 58.0019 39.1938 57.9421 39.2701 57.9047C39.2243 57.8224 39.1938 57.7028 39.1175 57.6728C38.9573 57.6055 38.7742 57.5681 38.5911 57.5457L38.5682 57.5532Z" fill="white"/>
<path d="M65.4675 57.7331C67.3519 58.5333 69.3049 58.6754 71.296 58.2342C74.0576 57.6209 75.8275 55.6017 76.0412 52.8495C76.1785 51.0995 75.5987 49.5664 74.4772 48.2277C73.5313 47.091 72.3793 46.1786 71.2197 45.2662C70.1593 44.4286 69.0989 43.5985 68.2673 42.529C67.3061 41.3025 67.2984 39.4104 68.2521 38.2737C68.8776 37.5333 69.7016 37.1743 70.6628 37.0995C71.7995 37.0098 72.8828 37.1594 73.8669 37.7951C74.317 38.0867 74.6451 38.4606 74.7748 38.9767C74.8587 39.3132 74.9197 39.6498 74.9807 39.9863C75.0189 40.1733 75.0876 40.3602 75.3012 40.3378C75.3774 40.3303 75.4614 40.091 75.469 39.9564C75.4919 39.4329 75.4766 38.9094 75.4766 38.3335C75.5071 37.8848 75.5453 37.3837 75.5758 36.8752C75.5987 36.5611 75.5071 36.4639 75.1867 36.4265C74.7977 36.3741 74.4162 36.3292 74.0348 36.2545C72.6539 35.9703 71.2731 35.8955 69.877 36.1572C68.3894 36.4414 67.1459 37.1145 66.3448 38.4083C65.2768 40.1134 65.3378 41.8933 66.1236 43.6733C66.7873 45.169 68.0003 46.2384 69.2286 47.278C70.3347 48.2053 71.4943 49.0728 72.4861 50.1273C73.4473 51.1444 74.0271 52.2812 73.8974 53.7021C73.7601 55.2203 73.0354 56.3495 71.5783 56.9628C70.5178 57.4115 69.4269 57.3816 68.3284 57.1198C67.1077 56.8356 66.1999 56.1626 65.7879 54.9884C65.6201 54.5173 65.6277 53.9863 65.5591 53.4777C65.5362 53.2908 65.5133 53.0739 65.2615 53.0664C65.0098 53.0664 65.0327 53.2983 65.025 53.4478C64.964 54.6145 64.9182 55.7812 64.8801 56.9478C64.8648 57.3367 65.1013 57.576 65.4599 57.7256L65.4675 57.7331Z" fill="white"/>
<path d="M80.6644 61.4948C80.611 61.4798 80.5271 61.5322 80.4661 61.5546C78.8869 62.1604 77.2543 62.5418 75.5607 62.6465C73.4704 62.7736 71.4411 62.4745 69.4271 61.951C67.7182 61.5097 66.0322 60.9787 64.4454 60.2084C61.9813 59.0119 59.5477 57.7555 57.0988 56.5215C57.0072 56.4766 56.9157 56.4168 56.8089 56.357C56.8623 56.2971 56.8852 56.2597 56.9157 56.2373C57.938 55.5642 58.7695 54.7042 59.4943 53.7469C61.0506 51.6828 61.8287 49.3495 61.844 46.8067C61.844 45.827 61.6761 44.8324 61.4701 43.8676C61.1116 42.1999 60.3182 40.7191 59.1433 39.4552C57.526 37.7127 55.4891 36.7031 53.1394 36.2619C50.8812 35.8281 48.646 35.9253 46.4565 36.6358C44.7247 37.1967 43.2829 38.1988 42.0775 39.5375C40.3152 41.5044 39.3692 43.8153 39.1251 46.3954C38.9497 48.2576 39.3235 50.045 40.0024 51.7725C40.6509 53.4403 41.6503 54.8911 43.054 56.0354C44.7247 57.389 46.6548 58.1593 48.8138 58.3986C50.866 58.623 52.8419 58.3687 54.7567 57.6134C54.8788 57.561 55.0771 57.5909 55.2068 57.6582C55.8095 57.9723 56.3969 58.3089 56.9844 58.6305C59.4332 59.9766 61.8592 61.3602 64.4607 62.4072C67.2147 63.514 70.0526 64.202 73.0661 63.9627C74.9351 63.8131 76.7661 63.4841 78.536 62.8783C79.2836 62.624 80.0236 62.3174 80.7636 62.0332C80.9238 61.9734 81.0459 61.8537 80.962 61.6892C80.9162 61.5995 80.7636 61.5396 80.6492 61.5022L80.6644 61.4948ZM53.2691 56.9403C49.9047 57.8377 46.96 56.9627 44.6256 54.42C43.2905 52.9617 42.5352 51.1892 42.1614 49.2597C41.8792 47.7864 41.8563 46.2982 42.0012 44.8174C42.1614 43.1871 42.6344 41.6465 43.6033 40.2779C44.8392 38.5204 46.5709 37.5332 48.6994 37.1892C50.4464 36.905 52.1553 37.0621 53.765 37.8324C55.4891 38.655 56.7402 39.9339 57.6328 41.5792C58.6627 43.4713 58.9679 45.5055 58.9831 47.607C58.9984 49.3121 58.7543 50.9873 58.0982 52.5728C57.1903 54.7565 55.5959 56.327 53.2691 56.9478V56.9403Z" fill="white"/>
</g>
<defs>
<clipPath id="clip0_3478_13312">
<rect width="62" height="28" fill="white" transform="translate(19 36)"/>
</clipPath>
</defs>
</svg>
