<svg width="493" height="69" viewBox="0 0 493 69" fill="none" xmlns="http://www.w3.org/2000/svg">
<path d="M34.6639 23.4461C37.5234 23.2555 42.2892 23.2555 44.9581 23.2555C55.8243 23.2544 65.4523 21.6019 72.8434 32.1049C82.6227 46.0016 73.6279 65.7704 56.9944 68.1056C52.902 68.6806 48.4453 68.4623 44.2852 68.4534L24.4677 68.4394L8.61863 68.4733C6.69031 68.4775 2.004 68.6054 0.336914 68.3269C9.69578 58.9963 10.4309 58.3566 23.4732 58.3734L43.3818 58.4159C46.7015 58.4215 53.3899 58.6328 56.4107 57.9625C58.8923 57.4352 61.1872 56.2506 63.0571 54.5329C65.7675 51.9976 67.2429 48.3966 67.3363 44.7088C67.4484 40.8615 65.9893 37.1349 63.2953 34.385C58.368 29.3558 49.6126 30.1899 42.5484 30.2023C36.3502 30.2399 29.8041 30.2592 23.6071 30.2023C26.7102 26.3638 30.0887 24.2086 34.6639 23.4461Z" fill="#002069"/>
<path d="M22.6044 0.14137C28.1449 -0.132936 35.1424 0.0764723 40.7966 0.0762389L75.7094 0.0848808C72.8589 2.87884 69.1984 6.79266 65.6499 8.49032C63.9364 9.29853 62.1061 9.83174 60.2292 10.0703C57.311 10.4474 52.2451 10.2935 49.1705 10.2895L30.0963 10.2538C23.8232 10.2394 19.845 9.63354 14.5561 13.5812C13.4064 14.6623 12.4487 15.7948 11.6391 17.1523C9.74325 20.2972 9.21144 24.0791 10.1663 27.625C11.3501 32.0615 13.8739 34.3935 17.6965 36.6365C16.3534 38.6946 14.5795 42.0888 13.3408 44.3171C5.75215 41.2455 0.934624 34.4757 0.126179 26.3511C-0.526087 20.0401 1.36862 13.7299 5.3896 8.82229C9.91203 3.38986 15.6561 0.742276 22.6044 0.14137Z" fill="#002069"/>
<path d="M37.2707 37.7908C38.9913 37.4651 40.6558 38.582 41.006 40.2983C41.3585 42.0149 40.2659 43.6955 38.5547 44.0718C37.4248 44.3205 36.2482 43.9411 35.4778 43.0794C34.7051 42.2177 34.4576 41.0073 34.8288 39.9119C35.2 38.8163 36.1338 38.006 37.2707 37.7908Z" fill="#03DAC6"/>
<path d="M25.902 37.8102C27.5992 37.5242 29.2149 38.6434 29.5436 40.3329C29.8725 42.0224 28.7942 43.6661 27.1136 44.0373C25.9881 44.2862 24.8162 43.9049 24.0523 43.0414C23.2885 42.1779 23.0531 40.9683 23.4374 39.8814C23.8217 38.7944 24.7651 38.0016 25.902 37.8102Z" fill="#03DAC6"/>
<path d="M48.7767 37.811C50.4716 37.5225 52.0871 38.6386 52.4162 40.3255C52.7454 42.0125 51.6692 43.6541 49.9907 44.0241C48.8678 44.2713 47.6982 43.8911 46.9371 43.0303C46.1761 42.1696 45.9403 40.9638 46.3232 39.8799C46.7037 38.7957 47.6445 38.0039 48.7767 37.811Z" fill="#03DAC6"/>
<path d="M471.767 50.4455C477.394 50.4455 481.925 48.5501 485.36 44.7595L489.98 50.2678C487.907 52.7554 485.271 54.6508 482.073 55.9538C478.934 57.2568 475.409 57.9084 471.5 57.9084C466.525 57.9084 462.112 56.9015 458.262 54.8877C454.413 52.8146 451.421 49.942 449.289 46.2698C447.216 42.5976 446.18 38.4515 446.18 33.8316C446.18 29.271 447.187 25.1545 449.2 21.4823C451.273 17.8101 454.087 14.9671 457.641 12.9533C461.254 10.8803 465.311 9.84375 469.812 9.84375C474.077 9.84375 477.956 10.821 481.451 12.7756C484.945 14.6709 487.729 17.3659 489.802 20.8604C491.875 24.3549 492.941 28.3825 493 32.9432L455.597 40.2284C456.782 43.486 458.766 46.0033 461.55 47.7801C464.393 49.557 467.798 50.4455 471.767 50.4455ZM469.812 17.0401C466.851 17.0401 464.185 17.7213 461.816 19.0835C459.506 20.4458 457.7 22.3708 456.397 24.8584C455.094 27.2868 454.442 30.1298 454.442 33.3874V34.2759L484.56 28.5898C483.79 25.1545 482.073 22.3708 479.407 20.2385C476.742 18.1062 473.544 17.0401 469.812 17.0401Z" fill="black"/>
<path d="M426.78 10.2812V36.3126C426.78 43.2424 425.062 48.573 421.627 52.3045C418.192 56.0359 413.216 57.9016 406.701 57.9016C399.001 57.9016 393.671 55.0883 390.709 49.4615C389.169 52.3045 387.067 54.4367 384.401 55.8582C381.795 57.2205 378.538 57.9016 374.629 57.9016C368.054 57.9016 363.049 56.0359 359.614 52.3045C356.238 48.573 354.55 43.2424 354.55 36.3126V10.2812H363.079V35.513C363.079 40.5475 363.997 44.2789 365.833 46.7073C367.669 49.0765 370.601 50.2611 374.629 50.2611C378.656 50.2611 381.618 49.0469 383.513 46.6185C385.468 44.1901 386.445 40.4882 386.445 35.513V10.2812H394.974V35.513C394.974 40.4882 395.921 44.1901 397.817 46.6185C399.771 49.0469 402.762 50.2611 406.79 50.2611C410.758 50.2611 413.661 49.0765 415.497 46.7073C417.333 44.2789 418.251 40.5475 418.251 35.513V10.2812H426.78Z" fill="black"/>
<path d="M315.993 57.9084C312.143 57.9084 308.441 57.4049 304.887 56.398C301.334 55.3319 298.55 53.9992 296.536 52.4L300.09 45.6479C302.163 47.1286 304.68 48.3132 307.642 49.2017C310.603 50.0901 313.594 50.5343 316.615 50.5343C324.078 50.5343 327.809 48.4021 327.809 44.1375C327.809 42.716 327.306 41.5907 326.299 40.7615C325.292 39.9323 324.019 39.34 322.479 38.9846C320.998 38.57 318.866 38.1258 316.082 37.6519C312.291 37.0596 309.182 36.3785 306.753 35.6085C304.384 34.8385 302.341 33.5355 300.623 31.6994C298.905 29.8633 298.046 27.2868 298.046 23.9699C298.046 19.7054 299.823 16.2997 303.377 13.7529C306.931 11.1468 311.699 9.84375 317.681 9.84375C320.82 9.84375 323.959 10.2287 327.098 10.9987C330.238 11.7687 332.814 12.8052 334.828 14.1083L331.185 20.8604C327.335 18.3728 322.804 17.129 317.592 17.129C313.979 17.129 311.225 17.7213 309.33 18.9058C307.434 20.0904 306.487 21.66 306.487 23.6146C306.487 25.1545 307.02 26.3687 308.086 27.2572C309.152 28.1456 310.455 28.7971 311.995 29.2118C313.594 29.6264 315.815 30.1002 318.658 30.6333C322.449 31.2848 325.499 31.9955 327.809 32.7655C330.178 33.4763 332.192 34.7201 333.851 36.497C335.509 38.2738 336.338 40.7615 336.338 43.9599C336.338 48.2244 334.502 51.6301 330.83 54.1769C327.217 56.6646 322.271 57.9084 315.993 57.9084Z" fill="black"/>
<path d="M278.256 10.2812V57.3686H270.171V50.2611C268.454 52.6895 266.173 54.5848 263.33 55.9471C260.546 57.2501 257.496 57.9016 254.179 57.9016C247.901 57.9016 242.955 56.184 239.342 52.7487C235.729 49.2542 233.923 44.1308 233.923 37.3787V10.2812H242.452V36.4014C242.452 40.9621 243.548 44.427 245.739 46.7961C247.931 49.1061 251.07 50.2611 255.157 50.2611C259.658 50.2611 263.212 48.8988 265.818 46.1742C268.424 43.4497 269.727 39.5998 269.727 34.6245V10.2812H278.256Z" fill="black"/>
<path d="M191.042 9.84375C197.024 9.84375 201.763 11.591 205.257 15.0855C208.811 18.5209 210.588 23.585 210.588 30.2779V57.3753H202.059V31.2552C202.059 26.6945 200.963 23.2592 198.772 20.9493C196.58 18.6393 193.441 17.4843 189.354 17.4843C184.734 17.4843 181.092 18.8466 178.426 21.5712C175.761 24.2365 174.428 28.0864 174.428 33.1209V57.3753H165.899V10.288H174.073V17.3955C175.791 14.9671 178.101 13.1014 181.003 11.7983C183.964 10.4953 187.311 9.84375 191.042 9.84375Z" fill="black"/>
<path d="M126.898 57.9084C123.048 57.9084 119.347 57.4049 115.793 56.398C112.239 55.3319 109.455 53.9992 107.441 52.4L110.995 45.6479C113.068 47.1286 115.585 48.3132 118.547 49.2017C121.508 50.0901 124.499 50.5343 127.52 50.5343C134.983 50.5343 138.715 48.4021 138.715 44.1375C138.715 42.716 138.211 41.5907 137.204 40.7615C136.197 39.9323 134.924 39.34 133.384 38.9846C131.903 38.57 129.771 38.1258 126.987 37.6519C123.196 37.0596 120.087 36.3785 117.658 35.6085C115.289 34.8385 113.246 33.5355 111.528 31.6994C109.811 29.8633 108.952 27.2868 108.952 23.9699C108.952 19.7054 110.729 16.2997 114.282 13.7529C117.836 11.1468 122.604 9.84375 128.586 9.84375C131.725 9.84375 134.865 10.2287 138.004 10.9987C141.143 11.7687 143.719 12.8052 145.733 14.1083L142.091 20.8604C138.241 18.3728 133.71 17.129 128.497 17.129C124.884 17.129 122.13 17.7213 120.235 18.9058C118.34 20.0904 117.392 21.66 117.392 23.6146C117.392 25.1545 117.925 26.3687 118.991 27.2572C120.057 28.1456 121.36 28.7971 122.9 29.2118C124.499 29.6264 126.721 30.1002 129.564 30.6333C133.354 31.2848 136.405 31.9955 138.715 32.7655C141.084 33.4763 143.097 34.7201 144.756 36.497C146.414 38.2738 147.244 40.7615 147.244 43.9599C147.244 48.2244 145.407 51.6301 141.735 54.1769C138.122 56.6646 133.177 57.9084 126.898 57.9084Z" fill="black"/>
</svg>
