<svg width="100" height="100" viewBox="0 0 100 100" fill="none" xmlns="http://www.w3.org/2000/svg">
<g clip-path="url(#clip0_13457_10076)">
<circle cx="50" cy="50" r="50" fill="#002069"/>
<path d="M48.5489 25.9271C48.8483 25.0057 50.1517 25.0057 50.4511 25.9271L55.4496 41.3111C55.5835 41.7231 55.9674 42.002 56.4007 42.002H72.5764C73.5451 42.002 73.9479 43.2416 73.1642 43.8111L60.0777 53.3189C59.7273 53.5735 59.5806 54.0249 59.7145 54.4369L64.713 69.8209C65.0124 70.7422 63.9579 71.5084 63.1742 70.9389L50.0878 61.4311C49.7373 61.1765 49.2627 61.1765 48.9122 61.4311L35.8258 70.9389C35.0421 71.5084 33.9876 70.7422 34.287 69.8209L39.2855 54.4369C39.4194 54.0249 39.2727 53.5735 38.9223 53.3189L25.8358 43.8111C25.0521 43.2416 25.4549 42.002 26.4236 42.002H42.5993C43.0325 42.002 43.4165 41.7231 43.5504 41.3111L48.5489 25.9271Z" fill="white"/>
</g>
<defs>
<clipPath id="clip0_13457_10076">
<rect width="100" height="100" fill="white"/>
</clipPath>
</defs>
</svg>
