<svg width="100" height="100" viewBox="0 0 100 100" fill="none" xmlns="http://www.w3.org/2000/svg">
<circle cx="50" cy="50" r="50" fill="#002069"/>
<g clip-path="url(#clip0_1714_9965)">
<path fill-rule="evenodd" clip-rule="evenodd" d="M81.2552 50C81.2552 42.1118 82.3642 36.9114 82.3743 36.8628L83 34L79.9937 34.3987C79.8834 34.4123 68.7688 35.8554 50.001 35.8554C31.2332 35.8554 20.1166 34.4123 20.0083 34.3987L17 34L17.6257 36.8628C17.6378 36.9133 18.7448 42.0729 18.7448 50C18.7448 57.9271 17.6358 63.0867 17.6257 63.1372L17 66L20.0063 65.6033C20.1166 65.5877 31.2312 64.1466 49.999 64.1466C68.7668 64.1466 79.8814 65.5877 79.9917 65.6033L82.994 65.9981L82.3743 63.1392C82.3622 63.0886 81.2552 57.8882 81.2552 50Z" fill="white"/>
<path fill-rule="evenodd" clip-rule="evenodd" d="M71.6086 62.4448C71.9014 61.6494 73.4677 57.0305 73.4677 48.9692C73.4677 40.9079 71.9515 37.5123 71.6246 36.8452C66.4985 37.1992 59.1763 37.5415 50.001 37.5415C40.8257 37.5415 33.5055 37.1992 28.3774 36.8452C28.0505 37.5123 26.5343 41.0343 26.5343 48.9692C26.5343 56.904 28.0986 61.6494 28.3914 62.4448C33.5176 62.0909 40.8337 61.7486 49.999 61.7486C59.1643 61.7486 66.4805 62.0909 71.6086 62.4448Z" fill="#D8DFE1"/>
</g>
<path d="M39.424 54.1919C38.5067 54.1919 37.6854 53.9679 36.96 53.5199C36.2347 53.0612 35.664 52.3999 35.248 51.5359C34.832 50.6719 34.624 49.6266 34.624 48.3999C34.624 47.1732 34.832 46.1279 35.248 45.2639C35.664 44.3999 36.2347 43.7439 36.96 43.2959C37.6854 42.8372 38.5067 42.6079 39.424 42.6079C40.352 42.6079 41.1734 42.8372 41.888 43.2959C42.6134 43.7439 43.184 44.3999 43.6 45.2639C44.016 46.1279 44.224 47.1732 44.224 48.3999C44.224 49.6266 44.016 50.6719 43.6 51.5359C43.184 52.3999 42.6134 53.0612 41.888 53.5199C41.1734 53.9679 40.352 54.1919 39.424 54.1919ZM39.424 51.9999C39.8614 51.9999 40.24 51.8772 40.56 51.6319C40.8907 51.3866 41.1467 50.9972 41.328 50.4639C41.52 49.9306 41.616 49.2426 41.616 48.3999C41.616 47.5572 41.52 46.8692 41.328 46.3359C41.1467 45.8026 40.8907 45.4132 40.56 45.1679C40.24 44.9226 39.8614 44.7999 39.424 44.7999C38.9974 44.7999 38.6187 44.9226 38.288 45.1679C37.968 45.4132 37.712 45.8026 37.52 46.3359C37.3387 46.8692 37.248 47.5572 37.248 48.3999C37.248 49.2426 37.3387 49.9306 37.52 50.4639C37.712 50.9972 37.968 51.3866 38.288 51.6319C38.6187 51.8772 38.9974 51.9999 39.424 51.9999Z" fill="#002069"/>
<path d="M53.9914 47.4479C54.5034 47.4479 54.9554 47.5519 55.3474 47.7599C55.7474 47.9599 56.0594 48.2719 56.2834 48.6959C56.5154 49.1119 56.6314 49.6479 56.6314 50.3039V53.9999H54.7594V50.5919C54.7594 50.0719 54.6514 49.6879 54.4354 49.4399C54.2194 49.1919 53.9154 49.0679 53.5234 49.0679C53.2514 49.0679 53.0074 49.1319 52.7914 49.2599C52.5754 49.3799 52.4074 49.5639 52.2874 49.8119C52.1674 50.0599 52.1074 50.3759 52.1074 50.7599V53.9999H50.2354V50.5919C50.2354 50.0719 50.1274 49.6879 49.9114 49.4399C49.7034 49.1919 49.4034 49.0679 49.0114 49.0679C48.7394 49.0679 48.4954 49.1319 48.2794 49.2599C48.0634 49.3799 47.8954 49.5639 47.7754 49.8119C47.6554 50.0599 47.5954 50.3759 47.5954 50.7599V53.9999H45.7234V47.5439H47.5114V49.3079L47.1754 48.7919C47.3994 48.3519 47.7154 48.0199 48.1234 47.7959C48.5394 47.5639 49.0114 47.4479 49.5394 47.4479C50.1314 47.4479 50.6474 47.5999 51.0874 47.9039C51.5354 48.1999 51.8314 48.6559 51.9754 49.2719L51.3154 49.0919C51.5314 48.5879 51.8754 48.1879 52.3474 47.8919C52.8274 47.5959 53.3754 47.4479 53.9914 47.4479Z" fill="#002069"/>
<path d="M61.3922 56.4239C60.7842 56.4239 60.1962 56.3479 59.6282 56.1959C59.0682 56.0519 58.6002 55.8319 58.2242 55.5359L58.9682 54.1919C59.2402 54.4159 59.5842 54.5919 60.0002 54.7199C60.4242 54.8559 60.8402 54.9239 61.2482 54.9239C61.9122 54.9239 62.3922 54.7759 62.6882 54.4799C62.9922 54.1839 63.1442 53.7439 63.1442 53.1599V52.1879L63.2642 50.5679L63.2402 48.9359V47.5439H65.0162V52.9199C65.0162 54.1199 64.7042 55.0039 64.0802 55.5719C63.4562 56.1399 62.5602 56.4239 61.3922 56.4239ZM61.1042 53.6879C60.5042 53.6879 59.9602 53.5599 59.4722 53.3039C58.9922 53.0399 58.6042 52.6759 58.3082 52.2119C58.0202 51.7399 57.8762 51.1919 57.8762 50.5679C57.8762 49.9359 58.0202 49.3879 58.3082 48.9239C58.6042 48.4519 58.9922 48.0879 59.4722 47.8319C59.9602 47.5759 60.5042 47.4479 61.1042 47.4479C61.6482 47.4479 62.1282 47.5599 62.5442 47.7839C62.9602 47.9999 63.2842 48.3399 63.5162 48.8039C63.7482 49.2599 63.8642 49.8479 63.8642 50.5679C63.8642 51.2799 63.7482 51.8679 63.5162 52.3319C63.2842 52.7879 62.9602 53.1279 62.5442 53.3519C62.1282 53.5759 61.6482 53.6879 61.1042 53.6879ZM61.4762 52.1519C61.8042 52.1519 62.0962 52.0879 62.3522 51.9599C62.6082 51.8239 62.8082 51.6359 62.9522 51.3959C63.0962 51.1559 63.1682 50.8799 63.1682 50.5679C63.1682 50.2479 63.0962 49.9719 62.9522 49.7399C62.8082 49.4999 62.6082 49.3159 62.3522 49.1879C62.0962 49.0519 61.8042 48.9839 61.4762 48.9839C61.1482 48.9839 60.8562 49.0519 60.6002 49.1879C60.3442 49.3159 60.1402 49.4999 59.9882 49.7399C59.8442 49.9719 59.7722 50.2479 59.7722 50.5679C59.7722 50.8799 59.8442 51.1559 59.9882 51.3959C60.1402 51.6359 60.3442 51.8239 60.6002 51.9599C60.8562 52.0879 61.1482 52.1519 61.4762 52.1519Z" fill="#002069"/>
<defs>
<clipPath id="clip0_1714_9965">
<rect width="66" height="32" fill="white" transform="translate(17 34)"/>
</clipPath>
</defs>
</svg>
