<svg width="100" height="100" viewBox="0 0 100 100" fill="none" xmlns="http://www.w3.org/2000/svg">
<circle cx="50" cy="50" r="50" fill="#002069"/>
<path d="M46.5924 27.7577C34.1466 27.7074 24.017 37.7555 23.9667 50.2013C23.9164 62.6471 33.9645 72.7767 46.4103 72.827C58.8562 72.8773 68.9858 62.8292 69.036 50.3834C69.0863 37.9376 59.0382 27.8079 46.5924 27.7577Z" fill="white"/>
<path d="M40.9743 24.0341L40.9288 35.3015L52.1961 35.347L52.2416 24.0797L49.4126 26.8859L46.608 24.0574L43.7795 26.8631L40.9743 24.0341Z" fill="white"/>
<path d="M72.6816 44.9612C65.1999 41.5516 56.3712 44.8525 52.9616 52.3342C49.552 59.8159 52.8529 68.6446 60.3346 72.0542C67.8163 75.4638 76.645 72.1629 80.0545 64.6812C83.4641 57.1995 80.1632 48.3708 72.6816 44.9612Z" fill="#7BA0C4"/>
<path d="M70.3091 41.1934L67.2224 47.9666L73.9956 51.0534L77.0824 44.2801L74.6167 45.202L73.6956 42.7371L71.2304 43.6588L70.3091 41.1934Z" fill="#7BA0C4"/>
</svg>
