<svg width="100" height="100" viewBox="0 0 100 100" fill="none" xmlns="http://www.w3.org/2000/svg">
<circle cx="50" cy="50" r="50" fill="#002069"/>
<g clip-path="url(#clip0_12919_12706)">
<path d="M51.4443 70.922C50.9352 69.886 50.194 68.466 49.1937 66.8495C49.1133 66.7245 49.033 66.5905 48.9526 66.4655C48.3899 65.5813 47.7558 64.6436 47.0414 63.6969C46.3269 62.7502 45.541 61.7857 44.6747 60.8301C44.2371 60.3568 43.7905 59.8834 43.3172 59.428C43.085 59.1958 42.8349 58.9725 42.5938 58.7492C42.3527 58.517 42.1026 58.3027 41.8525 58.0794C41.6025 57.8561 41.3435 57.6418 41.0845 57.4275L40.6915 57.1059L40.2896 56.7934L39.8878 56.4808C39.7538 56.3825 39.6198 56.2843 39.4859 56.1861C39.2179 55.9896 38.9589 55.802 38.6553 55.6056L38.2087 55.3019L37.7801 55.0072C37.4675 54.7839 37.146 54.5785 36.8423 54.3463C36.5387 54.1052 36.244 53.873 35.9492 53.6229C35.6635 53.3639 35.3866 53.096 35.1097 52.837C34.8507 52.5601 34.5828 52.2833 34.3238 51.9975C34.0827 51.7028 33.8505 51.408 33.6183 51.1044C33.4039 50.7918 33.1896 50.4882 32.9842 50.1756C32.886 50.0148 32.7966 49.8541 32.7073 49.6933C32.618 49.5326 32.5198 49.3807 32.4394 49.2111C31.7607 47.9161 31.332 46.5586 31.0909 45.2636C30.8497 43.9686 30.8051 42.7273 30.8765 41.6109C30.948 40.4856 31.1266 39.4764 31.3409 38.6101C31.5285 37.8421 31.7428 37.1812 31.9571 36.6275C31.457 36.8061 30.9748 37.0204 30.5103 37.2794C26.7505 39.4139 24.875 43.9151 25 49.2289C25.0982 53.1496 26.295 57.5168 28.6259 61.6785C34.1273 71.4668 43.8888 76.4234 50.4262 72.7439C50.6405 72.6189 50.8549 72.4938 51.0603 72.3509C51.5247 72.0383 51.6765 71.431 51.4354 70.9309C51.4354 70.9309 51.4354 70.9309 51.4354 70.922H51.4443Z" fill="white"/>
<path d="M35.1901 36.0916C33.7075 36.1095 32.484 37.2705 32.4394 38.753C32.4394 38.7619 32.4394 38.7709 32.4394 38.7798C32.4126 39.6282 32.4394 40.5838 32.5465 41.593C32.6537 42.6111 32.8591 43.6918 33.1985 44.7724C33.5378 45.853 34.0201 46.9426 34.6631 47.9697C34.815 48.2287 35.0114 48.4698 35.1722 48.7288C35.3508 48.9789 35.5473 49.22 35.7438 49.4611C35.9492 49.6933 36.1635 49.9255 36.3689 50.1577C36.5922 50.381 36.8155 50.6043 37.0477 50.8275C37.2888 51.0329 37.5299 51.2473 37.78 51.4616C38.039 51.6581 38.298 51.8546 38.557 52.0511C38.8249 52.2386 39.1018 52.4172 39.3697 52.6048L40.2717 53.2031C40.5575 53.3907 40.879 53.6318 41.1827 53.8551C41.3345 53.9712 41.4952 54.0784 41.6381 54.1945L42.0758 54.5428L42.5134 54.8911C42.6563 55.0072 42.7902 55.1322 42.9331 55.2572C43.21 55.4984 43.4868 55.7484 43.7548 55.9985C44.2906 56.4986 44.7997 57.0256 45.2819 57.5525C45.7642 58.0883 46.2197 58.6242 46.6484 59.1779C47.5057 60.2764 48.238 61.4017 48.8721 62.5002C49.5062 63.5987 50.0242 64.6793 50.4529 65.6885C50.5601 65.9386 50.6583 66.1886 50.7476 66.4298C51.0334 67.171 51.2656 67.8676 51.4532 68.5017C51.7032 69.3501 51.8818 70.1093 52.0069 70.7255C52.0694 71.0202 52.1051 71.2792 52.1408 71.5114C54.4807 69.3859 55.7578 66.0815 55.9364 62.2501C56.1329 57.9722 54.9541 53.0335 52.3195 48.3626C48.0237 40.7178 41.1291 36.0202 35.199 36.0827L35.1901 36.0916Z" fill="white"/>
<path d="M69.0559 28.3307C68.5379 28.0449 68.011 27.8038 67.4573 27.6073C67.6895 28.2146 67.9306 28.9469 68.136 29.7864C68.3682 30.742 68.5647 31.8584 68.6451 33.0908C68.7165 34.3233 68.6629 35.6897 68.4039 37.1097C68.1449 38.5297 67.6627 40.0212 66.9214 41.4501C66.841 41.6377 66.7339 41.8074 66.6267 41.986C66.5284 42.1646 66.4213 42.3343 66.3141 42.5129C66.0908 42.8612 65.8497 43.1917 65.6175 43.531C65.3674 43.8615 65.0995 44.183 64.8405 44.5134C64.5547 44.8171 64.2689 45.1207 63.9832 45.4333C63.6795 45.7191 63.3669 46.0049 63.0543 46.2907C62.7328 46.5586 62.4024 46.8265 62.0719 47.0855C61.7326 47.3356 61.3843 47.5678 61.036 47.8089L60.5626 48.1304L60.0714 48.4609C59.7321 48.6752 59.4552 48.8895 59.1516 49.1039C58.9997 49.2111 58.8568 49.3093 58.705 49.4254L58.2674 49.7648L57.8298 50.1041L57.4011 50.4614C57.1153 50.6936 56.8295 50.9258 56.5527 51.1758C56.3562 51.3455 56.1597 51.5241 55.9722 51.6938C56.8653 54.0248 57.4458 56.4004 57.7048 58.7135C57.8387 59.937 57.8834 61.1427 57.8298 62.3305C57.7405 64.3667 57.3475 66.2601 56.7045 67.948C62.0005 66.269 67.4215 61.6875 71.101 55.1411C73.6731 50.5685 74.986 45.7637 75.0931 41.4501C75.236 35.6094 73.1819 30.6438 69.038 28.3218L69.0559 28.3307Z" fill="white"/>
<path d="M53.9807 47.4249C54.2219 47.8625 54.4541 48.3001 54.6773 48.7467C54.9095 48.5234 55.1507 48.309 55.3918 48.1036C55.5436 47.9697 55.6954 47.8357 55.8562 47.7017L56.3385 47.3177L56.8207 46.9337C56.9815 46.8087 57.1601 46.6836 57.3209 46.5586C57.6602 46.3175 58.0085 46.0495 58.3211 45.8441L59.3124 45.1832C59.6072 44.9778 59.9197 44.7813 60.2055 44.5759C60.4824 44.3527 60.7682 44.1383 61.054 43.924C61.3219 43.6918 61.5898 43.4596 61.8577 43.2274C62.1078 42.9773 62.3579 42.7362 62.599 42.495C62.8312 42.2361 63.0634 41.9771 63.2867 41.727C63.4921 41.4591 63.7154 41.1911 63.9118 40.9232C64.0905 40.6374 64.3048 40.3784 64.4745 40.0926C65.18 38.9584 65.7159 37.7617 66.082 36.5739C66.4571 35.3771 66.6893 34.1893 66.8054 33.073C66.9215 31.9566 66.9483 30.9028 66.9215 29.974C66.9215 29.965 66.9215 29.9561 66.9215 29.9472C66.8769 28.3128 65.5283 27.0357 63.9029 27.0179C57.946 26.9553 51.096 31.269 46.3538 38.4315C49.2652 40.6999 51.9177 43.7722 53.9807 47.4427V47.4249Z" fill="white"/>
</g>
<defs>
<clipPath id="clip0_12919_12706">
<rect width="50.12" height="46.9585" fill="white" transform="translate(25 27)"/>
</clipPath>
</defs>
</svg>
